<svg width="80" height="40" viewBox="0 0 80 40" fill="none" xmlns="http://www.w3.org/2000/svg">
<g id="Company Logo">
<path id="Vector" d="M11.0002 29.4166C9.7968 29.6279 8.57219 29.6913 7.30539 29.8601L3.44148 18.5432V30.3458C2.23805 30.4724 1.14016 30.6413 0 30.8102V9.1897H3.20938L7.60094 21.457V9.1897H11.0002V29.4166ZM17.6511 17.1074C18.9602 17.1074 20.966 17.044 22.1695 17.044V20.4221C20.6703 20.4221 18.918 20.4221 17.6511 20.4855V25.5107C19.6359 25.384 21.6205 25.215 23.6262 25.1516V28.4029L14.2728 29.1421V9.1897H23.6262V12.5679H17.6511V17.1074ZM36.1889 12.568H32.6841V28.1077C31.5439 28.1077 30.4037 28.1077 29.306 28.1498V12.568H25.8012V9.1897H36.1891L36.1889 12.568ZM41.6784 16.8752H46.3024V20.2533H41.6784V27.9177H38.3634V9.1897H47.8015V12.5679H41.6784V16.8752ZM53.291 24.9617C55.2124 25.0038 57.1548 25.1518 59.034 25.2572V28.5933C56.0148 28.4031 52.9955 28.2133 49.9129 28.1498V9.1897H53.291V24.9617ZM61.8843 28.8255C62.9611 28.889 64.1012 28.9523 65.1991 29.0788V9.1897H61.8843V28.8255ZM80 9.1897L75.7138 19.4721L80 30.8102C78.733 30.6413 77.4662 30.409 76.1994 30.1979L73.7714 23.9483L71.3013 29.6913C70.0765 29.48 68.8941 29.4166 67.6698 29.2477L72.0191 19.3453L68.0919 9.1897H71.7233L73.9402 14.8693L76.3051 9.1897H80Z" fill="#FF8800"/>
</g>
</svg>
