<svg width="80" height="18" viewBox="0 0 80 18" fill="none" xmlns="http://www.w3.org/2000/svg">
<g id="Group">
<path id="Subtract" fill-rule="evenodd" clip-rule="evenodd" d="M22.7255 0.602077C23.8255 0.898377 24.69 1.76284 24.9822 2.85877C25.514 4.8476 25.514 8.99987 25.514 8.99987C25.514 8.99987 25.514 13.152 24.9822 15.1409C24.6859 16.2408 23.8215 17.1054 22.7255 17.3976C20.7367 17.9293 12.757 17.9293 12.757 17.9293C12.757 17.9293 4.78137 17.9293 2.78846 17.3976C1.68854 17.1013 0.823973 16.2368 0.531765 15.1409C0 13.152 0 8.99977 0 8.99977C0 8.99977 0 4.8476 0.531765 2.85877C0.828064 1.75885 1.69263 0.894286 2.78846 0.602077C4.78137 0.0703125 12.757 0.0703125 12.757 0.0703125C12.757 0.0703125 20.7367 0.0703125 22.7255 0.602077ZM16.8362 8.99982L10.2081 12.8274V5.17236L16.8362 8.99982Z" fill="#E64545"/>
<g id="Group_2">
<path id="Vector" fill-rule="evenodd" clip-rule="evenodd" d="M37.0331 16.3178C36.5298 15.9769 36.1685 15.4492 35.9575 14.7309C35.7464 14.0124 35.6368 13.0586 35.6368 11.8652V10.2417C35.6368 9.03627 35.7585 8.07029 36.0021 7.33956C36.2456 6.60904 36.6272 6.07738 37.1426 5.74448C37.6581 5.41168 38.336 5.24124 39.1761 5.24124C40.0042 5.24124 40.6658 5.41168 41.1649 5.75266C41.6642 6.09353 42.0295 6.6253 42.2609 7.34774C42.4922 8.07029 42.6059 9.03628 42.6059 10.2376V11.8612C42.6059 13.0545 42.4922 14.0124 42.2689 14.7349C42.0457 15.4573 41.6805 15.9891 41.1731 16.3219C40.6698 16.6547 39.9838 16.8253 39.1193 16.8253C38.2344 16.8292 37.5363 16.6587 37.0331 16.3178ZM39.862 14.5644C40.0001 14.1991 40.0732 13.6024 40.0732 12.7785V9.29198C40.0732 8.48825 40.0042 7.90384 39.862 7.53045C39.7241 7.16105 39.4765 6.97435 39.1233 6.97435C38.7825 6.97435 38.5429 7.16105 38.4009 7.53045C38.2629 7.89975 38.1899 8.48825 38.1899 9.29198V12.7785C38.1899 13.6065 38.2548 14.2032 38.3887 14.5644C38.5227 14.9297 38.7662 15.1123 39.1194 15.1123C39.4765 15.1123 39.72 14.9297 39.862 14.5644ZM75.7829 11.8936V12.4579C75.7829 13.1763 75.8032 13.712 75.8479 14.0732C75.8884 14.4305 75.9778 14.6943 76.1117 14.8567C76.2457 15.019 76.4526 15.1043 76.7326 15.1043C77.1102 15.1043 77.3699 14.9581 77.5079 14.6658C77.646 14.3736 77.723 13.8865 77.7352 13.2047L79.9066 13.3306C79.9189 13.4279 79.9229 13.5618 79.9229 13.7323C79.9229 14.7674 79.6388 15.5385 79.0746 16.0499C78.5104 16.5613 77.7109 16.817 76.6759 16.817C75.4338 16.817 74.5653 16.4274 74.066 15.6481C73.5668 14.8688 73.3193 13.6673 73.3193 12.0358V10.0834C73.3193 8.40309 73.579 7.18129 74.0944 6.4062C74.6099 5.63498 75.4947 5.24932 76.749 5.24932C77.6135 5.24932 78.2751 5.4077 78.7377 5.72424C79.2005 6.04078 79.5252 6.53185 79.716 7.20164C79.9027 7.87133 80.0001 8.79682 80.0001 9.97384V11.8897H75.7829V11.8936ZM76.1035 7.18538C75.9777 7.34376 75.8925 7.60345 75.8478 7.96069C75.8031 8.31782 75.7829 8.86584 75.7829 9.59227V10.396H77.6256V9.59227C77.6256 8.87381 77.6013 8.32998 77.5525 7.96069C77.5038 7.59128 77.4146 7.3275 77.2887 7.1773C77.1629 7.02711 76.964 6.95002 76.6961 6.95002C76.4283 6.94593 76.2294 7.02711 76.1035 7.18538ZM30.9042 11.6826L28.0387 1.33661H30.5389L31.5415 6.02463C31.7972 7.1814 31.9839 8.16364 32.1056 8.97943H32.1786C32.2639 8.39491 32.4506 7.41676 32.7429 6.04078L33.7819 1.33252H36.2821L33.3842 11.6826V16.6466H30.9042V11.6826ZM50.7357 5.46045V16.6425H48.7672L48.548 15.2747H48.4952C47.9594 16.3097 47.1558 16.8252 46.0883 16.8252C45.3456 16.8252 44.7976 16.5817 44.4446 16.0946C44.0914 15.6075 43.9169 14.8485 43.9169 13.8135V5.46045H46.4334V13.6714C46.4334 14.1707 46.4861 14.5279 46.5957 14.7389C46.7053 14.95 46.8879 15.0596 47.1437 15.0596C47.3629 15.0596 47.5739 14.9945 47.7728 14.8607C47.9716 14.7268 48.1218 14.5562 48.2192 14.3493V5.46035L50.7357 5.46045ZM63.651 5.46045V16.6425H61.6824L61.4632 15.2747H61.4105C60.8747 16.3097 60.0711 16.8252 59.0036 16.8252C58.2609 16.8252 57.7129 16.5817 57.3598 16.0946C57.0067 15.6075 56.8322 14.8485 56.8322 13.8135V5.46045H59.3486V13.6714C59.3486 14.1707 59.4014 14.5279 59.511 14.7389C59.6205 14.95 59.8032 15.0596 60.0589 15.0596C60.2781 15.0596 60.4892 14.9945 60.688 14.8607C60.8869 14.7268 61.0371 14.5562 61.1345 14.3493V5.46035L63.651 5.46045Z" fill="#E64545"/>
<path id="Vector_2" fill-rule="evenodd" clip-rule="evenodd" d="M57.579 3.36206H55.0788V16.6425H52.615V3.36206H50.1148V1.33674H57.5749V3.36206H57.579ZM71.9838 7.25033C71.8297 6.54415 71.5861 6.03273 71.2451 5.71619C70.9043 5.39954 70.4375 5.24127 69.8407 5.24127C69.3782 5.24127 68.9479 5.37112 68.546 5.63501C68.1442 5.8947 67.8358 6.23977 67.6166 6.66592H67.5963V0.772461H65.1691V16.6466H67.2472L67.5029 15.5873H67.5557C67.7505 15.9648 68.0427 16.2611 68.4323 16.4802C68.822 16.6994 69.2523 16.809 69.7271 16.809C70.5795 16.809 71.2045 16.4152 71.6065 15.6319C72.0082 14.8486 72.2071 13.6228 72.2071 11.9546V10.1849C72.2112 8.93478 72.134 7.95663 71.9838 7.25044V7.25033ZM69.6744 11.8125C69.6744 12.6284 69.6419 13.2656 69.573 13.7283C69.5079 14.1911 69.3943 14.5198 69.2361 14.7146C69.0777 14.9094 68.8667 15.0069 68.5988 15.0069C68.3918 15.0069 68.2011 14.9582 68.0225 14.8607C67.8479 14.7633 67.7018 14.6172 67.5922 14.4223V8.07032C67.6775 7.76584 67.8236 7.51831 68.0306 7.32354C68.2376 7.12867 68.4608 7.03123 68.7043 7.03123C68.96 7.03123 69.1589 7.13265 69.2969 7.33151C69.4349 7.53048 69.5324 7.87135 69.5891 8.34218C69.642 8.8171 69.6703 9.49088 69.6703 10.3675V11.8125H69.6744Z" fill="#E64545"/>
</g>
</g>
</svg>
