<svg width="80" height="28" viewBox="0 0 80 28" fill="none" xmlns="http://www.w3.org/2000/svg">
<g id="Group 5">
<path id="Vector" d="M9.85236 0.946289H10.5638C13.0336 0.99998 15.4631 1.99327 17.2081 3.75167C16.5638 4.40938 15.906 5.04026 15.2752 5.69798C14.2953 4.81207 13.1141 4.12751 11.8255 3.88589C9.91947 3.48321 7.86578 3.84563 6.26847 4.93288C4.5235 6.07382 3.34229 8.00671 3.08726 10.0738C2.80538 12.1141 3.38256 14.2618 4.71142 15.8457C5.98659 17.3893 7.93289 18.3557 9.94632 18.4228C11.8255 18.5302 13.7852 17.953 15.1544 16.6376C16.2282 15.7114 16.7248 14.302 16.8859 12.9329C14.6577 12.9329 12.4295 12.9463 10.2014 12.9329V10.1678H19.5839C20.0671 13.1342 19.3691 16.4765 17.1141 18.5973C15.6107 20.1007 13.5302 20.9866 11.4094 21.1611C9.35571 21.3624 7.23491 20.9732 5.4094 19.9799C3.22149 18.8121 1.47652 16.8389 0.617459 14.5168C-0.18791 12.3826 -0.201333 9.96645 0.550345 7.81879C1.23491 5.85905 2.55034 4.12751 4.24162 2.91945C5.86578 1.72481 7.83893 1.06709 9.85236 0.946289Z" fill="#0F9918"/>
<path id="Vector_2" d="M63.6778 1.64429H66.5503V20.8121C65.5973 20.8121 64.6309 20.8255 63.6778 20.7986C63.6913 14.4228 63.6778 8.03355 63.6778 1.64429Z" fill="#0F9918"/>
<path id="Vector_3" d="M25.9732 8.2885C27.745 7.95293 29.6644 8.32877 31.1275 9.38918C32.4564 10.3288 33.3826 11.8053 33.6644 13.416C34.0269 15.2818 33.5705 17.3221 32.3624 18.7986C31.0604 20.4496 28.9262 21.3355 26.8456 21.2013C24.9396 21.0939 23.0872 20.1409 21.9597 18.5838C20.6846 16.8657 20.3758 14.5033 21.0738 12.4899C21.7718 10.3288 23.745 8.67777 25.9732 8.2885ZM26.3758 10.8388C25.651 11.0268 24.9799 11.4429 24.4966 12.0335C23.1946 13.5905 23.2752 16.1274 24.7114 17.5771C25.5302 18.4093 26.7651 18.7986 27.906 18.5704C28.9664 18.3825 29.8926 17.6711 30.4027 16.7315C31.2886 15.1341 31.0336 12.9328 29.6779 11.6845C28.8054 10.8791 27.5302 10.5435 26.3758 10.8388Z" fill="#0F9918"/>
<path id="Vector_4" d="M40.2013 8.28852C42.2282 7.89925 44.4429 8.46301 45.9597 9.88583C48.4295 12.1006 48.698 16.2482 46.5906 18.7986C45.3154 20.4093 43.2483 21.2952 41.208 21.2012C39.2617 21.1476 37.3423 20.1811 36.1879 18.5838C34.8859 16.8254 34.604 14.4093 35.3423 12.3556C36.0805 10.2617 38.0134 8.66435 40.2013 8.28852ZM40.604 10.8388C39.8792 11.0268 39.208 11.4429 38.7248 12.0201C37.4362 13.5503 37.4899 16.0469 38.8725 17.51C39.6913 18.3825 40.9664 18.812 42.1476 18.5704C43.1946 18.369 44.1342 17.6711 44.6443 16.7315C45.5168 15.1207 45.2617 12.9194 43.8926 11.6711C43.0201 10.8657 41.745 10.5435 40.604 10.8388Z" fill="#0F9918"/>
<path id="Vector_5" d="M52.2684 9.06697C53.8121 8.10053 55.8658 7.83207 57.5302 8.66428C58.0537 8.89247 58.4832 9.28173 58.8993 9.67099C58.9127 9.30858 58.8993 8.93274 58.9127 8.5569C59.8121 8.57032 60.7114 8.5569 61.6242 8.57032V20.4092C61.6107 22.1945 61.1544 24.0871 59.8658 25.3891C58.4564 26.8253 56.2953 27.2683 54.349 26.973C52.2684 26.6643 50.4564 25.1475 49.651 23.228C50.4564 22.8388 51.302 22.53 52.1342 22.1676C52.604 23.2683 53.557 24.2079 54.7517 24.4226C55.9463 24.6374 57.3289 24.3421 58.1074 23.3488C58.9396 22.3287 58.9396 20.9327 58.8993 19.6844C58.2819 20.2884 57.5705 20.8253 56.7114 21.0267C54.8456 21.5502 52.7919 20.9059 51.3557 19.6441C49.906 18.3824 49.047 16.4361 49.1275 14.5032C49.1678 12.3153 50.4027 10.2079 52.2684 9.06697ZM55.047 10.7851C54.2282 10.9193 53.4631 11.3757 52.9396 12.0066C51.6778 13.5099 51.6778 15.9126 52.953 17.3891C53.6778 18.2616 54.8456 18.7448 55.9731 18.624C57.0336 18.5166 58.0134 17.8455 58.5369 16.9193C59.4228 15.3488 59.2752 13.2146 58.0805 11.8455C57.3423 10.9998 56.1611 10.5837 55.047 10.7851Z" fill="#0F9918"/>
<path id="Vector_6" d="M70 9.75161C71.6107 8.24825 74.094 7.73819 76.1611 8.53013C78.1208 9.26839 79.3692 11.1342 80 13.0536C77.0873 14.2617 74.1879 15.4563 71.2752 16.6644C71.6779 17.4295 72.2953 18.1275 73.1275 18.4093C74.2953 18.8254 75.6913 18.6778 76.6712 17.8993C77.0604 17.604 77.3691 17.2147 77.6645 16.8389C78.4027 17.3355 79.141 17.8187 79.8792 18.3154C78.8322 19.8858 77.0738 20.9865 75.1812 21.161C73.0873 21.416 70.8591 20.6107 69.5034 18.9731C67.2752 16.3959 67.4899 12.0738 70 9.75161ZM71.4363 12.2348C70.9799 12.8926 70.792 13.6979 70.8054 14.4899C72.7517 13.6845 74.698 12.8791 76.6443 12.0603C76.3222 11.3087 75.5436 10.8523 74.7517 10.7315C73.4765 10.5033 72.1477 11.1879 71.4363 12.2348Z" fill="#0F9918"/>
</g>
</svg>
