<svg width="113" height="26" viewBox="0 0 113 26" fill="none" xmlns="http://www.w3.org/2000/svg">
<g id="Group">
<path id="Subtract" fill-rule="evenodd" clip-rule="evenodd" d="M32.3158 1.24301C33.8557 1.65782 35.066 2.86807 35.4751 4.40238C36.2196 7.18673 36.2196 12.9999 36.2196 12.9999C36.2196 12.9999 36.2196 18.813 35.4751 21.5973C35.0603 23.1372 33.8501 24.3476 32.3158 24.7567C29.5314 25.5012 18.3598 25.5012 18.3598 25.5012C18.3598 25.5012 7.19392 25.5012 4.40385 24.7567C2.86395 24.3419 1.65356 23.1316 1.24447 21.5973C0.5 18.813 0.5 12.9998 0.5 12.9998C0.5 12.9998 0.5 7.18673 1.24447 4.40238C1.65929 2.86249 2.86968 1.6521 4.40385 1.24301C7.19392 0.498535 18.3598 0.498535 18.3598 0.498535C18.3598 0.498535 29.5314 0.498535 32.3158 1.24301ZM24.0706 12.9999L14.7913 18.3585V7.64148L24.0706 12.9999Z" fill="#B7BAC7"/>
<g id="Group_2">
<path id="Vector" fill-rule="evenodd" clip-rule="evenodd" d="M52.3463 23.2448C51.6417 22.7676 51.1359 22.0289 50.8405 21.0232C50.5449 20.0173 50.3915 18.682 50.3915 17.0113V14.7384C50.3915 13.0508 50.562 11.6984 50.9029 10.6754C51.2439 9.65263 51.7781 8.90831 52.4996 8.44225C53.2213 7.97633 54.1704 7.73772 55.3465 7.73772C56.5058 7.73772 57.4321 7.97633 58.1309 8.4537C58.8298 8.93092 59.3413 9.67539 59.6652 10.6868C59.9891 11.6984 60.1483 13.0508 60.1483 14.7326V17.0057C60.1483 18.6763 59.9891 20.0173 59.6765 21.0288C59.364 22.0402 58.8527 22.7847 58.1423 23.2506C57.4377 23.7165 56.4773 23.9554 55.2669 23.9554C54.0282 23.9608 53.0509 23.7222 52.3463 23.2448V23.2448ZM56.3069 20.7902C56.5001 20.2787 56.6024 19.4434 56.6024 18.2899V13.4088C56.6024 12.2835 56.5058 11.4653 56.3069 10.9426C56.1138 10.4254 55.7671 10.1641 55.2727 10.1641C54.7954 10.1641 54.4601 10.4254 54.2613 10.9426C54.068 11.4596 53.9658 12.2835 53.9658 13.4088V18.2899C53.9658 19.4491 54.0567 20.2844 54.2442 20.7902C54.4317 21.3016 54.7727 21.5572 55.2671 21.5572C55.7671 21.5572 56.108 21.3016 56.3069 20.7902V20.7902ZM106.596 17.0511V17.8411C106.596 18.8468 106.625 19.5968 106.687 20.1025C106.744 20.6026 106.869 20.9719 107.056 21.1994C107.244 21.4266 107.534 21.5459 107.926 21.5459C108.454 21.5459 108.818 21.3414 109.011 20.9321C109.204 20.5231 109.312 19.8411 109.329 18.8865L112.369 19.0628C112.386 19.199 112.392 19.3865 112.392 19.6251C112.392 21.0743 111.994 22.1538 111.204 22.8698C110.415 23.5858 109.295 23.9438 107.846 23.9438C106.107 23.9438 104.891 23.3983 104.192 22.3073C103.494 21.2163 103.147 19.5342 103.147 17.25V14.5168C103.147 12.1643 103.511 10.4538 104.232 9.36865C104.954 8.28895 106.193 7.74902 107.949 7.74902C109.159 7.74902 110.085 7.97075 110.733 8.41391C111.381 8.85706 111.835 9.54456 112.102 10.4823C112.364 11.4198 112.5 12.7155 112.5 14.3633V17.0455H106.596V17.0511ZM107.045 10.4595C106.869 10.6812 106.75 11.0448 106.687 11.5449C106.624 12.0449 106.596 12.8121 106.596 13.8291V14.9544H109.176V13.8291C109.176 12.8233 109.142 12.062 109.074 11.5449C109.005 11.0278 108.88 10.6585 108.704 10.4482C108.528 10.2379 108.25 10.13 107.875 10.13C107.5 10.1243 107.221 10.2379 107.045 10.4595ZM43.7658 16.7556L39.7542 2.27123H43.2544L44.658 8.83445C45.016 10.4539 45.2774 11.8291 45.4479 12.9712H45.5501C45.6694 12.1528 45.9308 10.7834 46.3401 8.85706L47.7946 2.2655H51.295L47.2378 16.7556V23.7052H43.7658V16.7556ZM71.53 8.04461V23.6995H68.774L68.4671 21.7845H68.3933C67.6432 23.2335 66.5181 23.9552 65.0236 23.9552C63.9839 23.9552 63.2166 23.6143 62.7224 22.9324C62.228 22.2505 61.9836 21.1879 61.9836 19.7389V8.04461H65.5067V19.54C65.5067 20.2389 65.5806 20.7391 65.734 21.0345C65.8875 21.3299 66.1431 21.4834 66.5011 21.4834C66.808 21.4834 67.1034 21.3923 67.3818 21.205C67.6603 21.0175 67.8705 20.7787 68.0069 20.489V8.04446L71.53 8.04461ZM89.6114 8.04461V23.6995H86.8554L86.5485 21.7845H86.4747C85.7246 23.2335 84.5995 23.9552 83.105 23.9552C82.0652 23.9552 81.298 23.6143 80.8038 22.9324C80.3093 22.2505 80.065 21.1879 80.065 19.7389V8.04461H83.5881V19.54C83.5881 20.2389 83.662 20.7391 83.8154 21.0345C83.9687 21.3299 84.2245 21.4834 84.5825 21.4834C84.8894 21.4834 85.1848 21.3923 85.4632 21.205C85.7416 21.0175 85.9519 20.7787 86.0883 20.489V8.04446L89.6114 8.04461Z" fill="#B7BAC7"/>
<path id="Vector_2" fill-rule="evenodd" clip-rule="evenodd" d="M81.1106 5.107H77.6103V23.6997H74.161V5.107H70.6607V2.27156H81.1049V5.107H81.1106ZM101.277 10.5506C101.062 9.56193 100.721 8.84594 100.243 8.40279C99.766 7.95948 99.1125 7.7379 98.277 7.7379C97.6295 7.7379 97.027 7.91969 96.4645 8.28913C95.9019 8.65271 95.4701 9.1358 95.1632 9.73241H95.1348V1.48157H91.7367V23.7054H94.646L95.004 22.2223H95.078C95.3507 22.7508 95.7598 23.1656 96.3053 23.4724C96.8508 23.7792 97.4533 23.9327 98.118 23.9327C99.3114 23.9327 100.186 23.3815 100.749 22.2847C101.311 21.1881 101.59 19.472 101.59 17.1366V14.659C101.596 12.9088 101.488 11.5394 101.277 10.5507V10.5506ZM98.0441 16.9376C98.0441 18.0799 97.9986 18.9719 97.9021 19.6198C97.8111 20.2676 97.6521 20.7278 97.4305 21.0006C97.2088 21.2733 96.9133 21.4097 96.5383 21.4097C96.2485 21.4097 95.9815 21.3416 95.7314 21.2052C95.4871 21.0688 95.2826 20.8642 95.1291 20.5914V11.6986C95.2485 11.2723 95.453 10.9258 95.7429 10.6531C96.0326 10.3803 96.3451 10.2438 96.686 10.2438C97.044 10.2438 97.3224 10.3858 97.5157 10.6642C97.7089 10.9428 97.8453 11.42 97.9248 12.0792C97.9988 12.7441 98.0384 13.6873 98.0384 14.9146V16.9376H98.0441Z" fill="#B7BAC7"/>
</g>
</g>
</svg>
