<svg width="113" height="38" viewBox="0 0 113 38" fill="none" xmlns="http://www.w3.org/2000/svg">
<g id="Group 9">
<path id="Vector" d="M22.9029 6.36462L0.5 28.7676H11.7014L14.4982 25.9708H34.1043L28.4964 20.3773H20.1061L28.5108 11.9726L22.9029 6.36462Z" fill="#B7BAC7"/>
<path id="Vector_2" d="M22.9028 6.36462L17.3093 11.9581L34.1043 28.7531H45.3057L22.9028 6.36462Z" fill="#B7BAC7"/>
<path id="Vector_3" d="M62.1008 0.770874L50.8993 11.9723L45.3058 6.37879H34.1043L45.3058 17.5802L25.642 37.2296H36.8434L50.8993 23.1737L56.4928 28.7672H67.6943L56.4928 17.5658L73.3022 0.770874H62.1008Z" fill="#B7BAC7"/>
<path id="Vector_4" d="M78.9101 6.36462L56.5072 28.7676H67.7087L78.9101 17.5661L90.1116 28.7676L112.5 6.36462H101.299L90.0972 17.5661L78.9101 6.36462Z" fill="#B7BAC7"/>
<path id="Vector_5" d="M70.5055 28.7673H87.3004L78.9102 20.377L70.5055 28.7673Z" fill="#B7BAC7"/>
<path id="Vector_6" d="M81.7068 28.7673H87.3003L78.9101 20.377L81.7068 28.7673Z" fill="#B7BAC7"/>
</g>
</svg>
