<svg width="109" height="34" viewBox="0 0 109 34" fill="none" xmlns="http://www.w3.org/2000/svg">
<g id="Group 17">
<path id="Vector" d="M23.6436 8.41731V18.8454C23.6436 19.0145 23.5764 19.1766 23.4569 19.2961C23.3374 19.4156 23.1754 19.4828 23.0064 19.4828H19.7154C19.5465 19.4827 19.3844 19.4155 19.265 19.296C19.1455 19.1765 19.0783 19.0144 19.0783 18.8454V1.88359C19.0783 1.71455 19.1454 1.55244 19.2649 1.43291C19.3844 1.31338 19.5464 1.24623 19.7154 1.24623H22.7608C22.9298 1.24623 23.0919 1.31338 23.2114 1.43291C23.3309 1.55244 23.398 1.71455 23.398 1.88359V4.27226C23.398 4.27226 24.4867 0.864889 27.7175 0.864889C27.7175 0.864889 30.9132 0.478486 32.2125 4.02637C32.2125 4.02637 33.3012 0.864889 36.6022 0.864889C36.6022 0.864889 41.5114 0.572909 41.5114 5.65404L41.5488 8.45244V18.8805C41.5488 19.0496 41.4816 19.2117 41.3621 19.3312C41.2426 19.4507 41.0806 19.5179 40.9116 19.5179H37.6204C37.4514 19.5178 37.2894 19.4507 37.1699 19.3311C37.0504 19.2116 36.9833 19.0496 36.9832 18.8805L36.9531 7.504C37.0467 4.92788 34.9632 5.11532 34.9632 5.11532C32.3412 5.16225 32.5935 8.45244 32.5935 8.45244V18.8805C32.5935 19.0496 32.5264 19.2117 32.4069 19.3312C32.2874 19.4507 32.1253 19.5179 31.9563 19.5179H28.6654C28.4964 19.5178 28.3344 19.4507 28.2149 19.3311C28.0954 19.2116 28.0283 19.0496 28.0282 18.8805V7.76141C28.0282 7.76141 28.2206 5.09172 25.8793 5.09172C25.8796 5.09172 23.5618 4.78737 23.6436 8.41731V8.41731ZM108.475 8.38612V18.8139C108.475 18.983 108.408 19.145 108.288 19.2645C108.169 19.3841 108.007 19.4512 107.838 19.4513L104.415 19.5176C104.246 19.5175 104.084 19.4504 103.965 19.3309C103.845 19.2113 103.778 19.0493 103.778 18.8803V7.76141C103.778 7.76141 103.97 5.09172 101.629 5.09172C101.629 5.09172 99.3934 4.98156 99.3934 9.16736V18.8451C99.3933 19.0142 99.3261 19.1762 99.2067 19.2957C99.0872 19.4152 98.9252 19.4824 98.7562 19.4825H95.465C95.296 19.4824 95.134 19.4152 95.0145 19.2957C94.895 19.1762 94.8279 19.0142 94.8278 18.8451V1.88359C94.8279 1.71457 94.895 1.5525 95.0145 1.43299C95.134 1.31348 95.296 1.24631 95.465 1.24623H98.5104C98.6794 1.24623 98.8414 1.31338 98.9609 1.43291C99.0804 1.55244 99.1476 1.71455 99.1476 1.88359V4.27226C99.1476 4.27226 100.236 0.864889 103.467 0.864889C103.467 0.864889 106.928 0.339662 108.094 3.96033C108.094 3.96005 108.475 4.707 108.475 8.38612ZM84.7131 0.794634C80.5046 0.794634 77.0926 4.34252 77.0926 10.3142C77.0926 15.5718 79.7264 19.8338 84.7131 19.8338C89.4188 19.8338 92.3336 15.5718 92.3336 10.3142C92.3336 4.4479 88.9219 0.794634 84.7131 0.794634V0.794634ZM87.3694 10.525C87.3694 12.7731 87.0884 13.9675 87.0884 13.9675C86.6887 16.3441 84.964 16.3474 84.7097 16.3348C84.4352 16.3457 82.6959 16.321 82.336 13.9675C82.336 13.9675 82.0551 12.7731 82.0551 10.525V10.1504C82.0551 7.9022 82.336 6.70787 82.336 6.70787C82.6959 4.35432 84.4355 4.32959 84.7097 4.34027C84.964 4.32762 86.6887 4.33071 87.0884 6.70787C87.0884 6.70787 87.3694 7.9022 87.3694 10.1504V10.525ZM75.1825 4.24866V1.81502C75.1824 1.646 75.1152 1.48393 74.9957 1.36442C74.8763 1.24491 74.7142 1.17774 74.5453 1.17766H63.6672C63.4982 1.17766 63.3362 1.24481 63.2167 1.36434C63.0972 1.48387 63.0301 1.64598 63.0301 1.81502V4.22983C63.0301 4.39884 63.0973 4.56091 63.2168 4.68042C63.3362 4.79993 63.4983 4.86711 63.6672 4.86718H69.3414L62.6252 14.613C62.6252 14.613 62.3606 15.0081 62.3693 15.4445V18.409C62.3693 18.409 62.3255 19.4254 63.4779 18.8356C63.4779 18.8356 65.5248 17.5985 68.9571 17.5985C68.9571 17.5985 72.3466 17.5564 74.6065 18.9421C74.6065 18.9421 75.5446 19.3687 75.5446 18.4306V15.8503C75.5446 15.8503 75.6297 15.1674 74.7344 14.7411C74.7344 14.7411 72.1334 13.3124 68.7225 13.5468L75.1825 4.24866ZM16.5383 16.4494L15.5081 14.8808C15.1802 14.2951 15.2038 13.6392 15.2038 13.6392V6.40324C15.3443 0.150535 8.41431 0.689251 8.41431 0.689251C2.25383 0.689251 1.34387 5.48486 1.34387 5.48486C1.08709 6.44905 1.83383 6.47237 1.83383 6.47237L4.84411 6.77784C4.84411 6.77784 5.35739 6.89531 5.54421 6.28409C5.54421 6.28409 5.94062 4.19189 8.15753 4.19189C10.5697 4.19189 10.5447 6.26273 10.5447 6.26273V7.99634C5.72936 8.15737 3.49784 9.49446 3.49784 9.49446C0.524643 11.1806 0.71175 14.5295 0.71175 14.5295C0.71175 19.9858 5.90916 19.7514 5.90916 19.7514C9.23353 19.7514 11.2001 17.3161 11.2001 17.3161C11.7853 18.3469 12.8624 19.3299 12.8624 19.3299C13.4013 19.9144 13.9629 19.4238 13.9629 19.4238L16.3978 17.3397C16.9361 16.9412 16.5383 16.4494 16.5383 16.4494ZM7.53159 16.382C5.96787 16.382 5.38661 14.8277 5.6462 13.3C5.90607 11.7724 7.25571 10.5719 10.545 10.607V11.5358C10.6616 15.5932 8.83319 16.382 7.53159 16.382ZM60.2712 16.4494L59.2413 14.8808C58.9134 14.2951 58.9368 13.6392 58.9368 13.6392V6.40324C59.0772 0.150535 52.1473 0.689251 52.1473 0.689251C45.9868 0.689251 45.0768 5.48486 45.0768 5.48486C44.82 6.44905 45.5668 6.47237 45.5668 6.47237L48.5771 6.77784C48.5771 6.77784 49.0903 6.89531 49.2772 6.28409C49.2772 6.28409 49.6736 4.19189 51.8905 4.19189C54.3026 4.19189 54.2776 6.26273 54.2776 6.26273V7.99634C49.4626 8.15737 47.2308 9.49446 47.2308 9.49446C44.2576 11.1806 44.4447 14.5295 44.4447 14.5295C44.4447 19.9858 49.6421 19.7514 49.6421 19.7514C52.9665 19.7514 54.9331 17.3161 54.9331 17.3161C55.5185 18.3469 56.5951 19.3299 56.5951 19.3299C57.134 19.9144 57.6958 19.4238 57.6958 19.4238L60.1305 17.3397C60.669 16.9412 60.2712 16.4494 60.2712 16.4494V16.4494ZM51.2645 16.382C49.7008 16.382 49.1196 14.8277 49.3791 13.3C49.639 11.7724 50.9887 10.5719 54.2776 10.607V11.5358C54.3945 15.5932 52.5664 16.382 51.2645 16.382Z" fill="#B7BAC7"/>
<g id="Group">
<path id="Vector_2" d="M68.5579 30.1459C68.5579 30.1459 68.2826 30.6251 68.6208 30.7321C68.6208 30.7321 69.0029 30.8813 69.4794 30.439C69.4794 30.439 72.9543 27.4026 73.038 21.8743C73.038 21.8743 73.0636 21.1839 72.7866 20.995C72.7866 20.995 71.6979 20.0317 67.7833 20.3248C67.7833 20.3248 64.371 20.5552 62.5081 22.2096C62.5081 22.2096 62.3407 22.356 62.3407 22.5443C62.3407 22.5443 62.3005 22.9509 63.3245 22.7747C63.3245 22.7747 66.7365 22.2928 68.7672 22.5443C68.7672 22.5443 69.8142 22.6699 70.1073 23.0262C70.1073 23.0262 70.5888 23.4242 70.3374 24.743C70.3374 24.7436 69.6462 28.0939 68.5579 30.1459V30.1459Z" fill="#B7BAC7"/>
<path id="Vector_3" d="M67.8698 24.8438C67.8698 24.8438 68.3795 25.5042 67.5571 26.0738C67.5571 26.0738 58.773 33.1021 44.0236 33.1021C44.0236 33.1021 28.841 33.8513 16.1635 22.3295C16.1635 22.3295 15.7191 21.9392 15.9949 21.5764C15.9949 21.5764 16.2416 21.2425 16.8802 21.6056C16.8802 21.6056 28.8058 29.0389 44.4683 29.0389C44.4683 29.0389 55.3548 29.4604 66.5221 24.683C66.5221 24.683 67.4119 24.2219 67.8698 24.8438Z" fill="#B7BAC7"/>
</g>
</g>
</svg>
