<svg width="113" height="56" viewBox="0 0 113 56" fill="none" xmlns="http://www.w3.org/2000/svg">
<g id="Company Logo">
<path id="Vector" d="M47.442 21.3774C45.4197 21.3774 43.1197 22.3148 41.7144 24.1916L41.7153 24.188L41.7144 24.1889L41.7153 21.672H36.8919V39.2374H41.7144V29.2425C41.7144 27.4437 43.1091 25.5313 45.6917 25.5313C47.6873 25.5313 49.7526 26.9197 49.7526 29.2425V39.2374H54.5761V28.3488C54.5761 24.3086 51.6856 21.3774 47.442 21.3774ZM88.8578 21.6729L84.4973 33.6379L80.1368 21.6729H74.6268L81.8541 39.2327H87.1396L94.3669 21.6729H88.8578ZM22.492 26.9645C23.3134 25.8615 24.6219 25.2139 26.2021 25.2139C27.9402 25.2139 29.2589 26.2065 29.9406 27.6718L21.5137 31.168C21.2836 29.3737 21.7427 27.9705 22.492 26.9645ZM31.7586 33.837C29.7286 35.3394 28.5688 35.6978 26.7175 35.6978C25.0515 35.6978 23.7471 35.1805 22.8276 34.2735L35.1589 29.1579C34.8897 27.2516 34.1661 25.5485 33.0529 24.2536C31.4326 22.372 29.0344 21.3765 26.1145 21.3765C20.8109 21.3765 16.8117 25.289 16.8117 30.4569C16.8117 35.7586 20.8204 39.5361 26.6462 39.5361C29.9103 39.5361 33.2477 37.9891 34.8089 36.1818L31.7586 33.837ZM16.352 34.8086H5.38931V16.4188H0.5V39.2374H16.352V34.8086ZM103.028 25.5098C100.334 25.5098 98.3783 27.5512 98.3783 30.455C98.3783 33.2277 100.45 35.4002 103.093 35.4002C105.787 35.4002 107.742 33.3028 107.742 30.455C107.742 27.6824 105.671 25.5098 103.028 25.5098ZM103.028 39.5336C97.7529 39.5336 93.6195 35.6037 93.6195 30.455C93.6195 25.3641 97.7814 21.3765 103.093 21.3765C108.368 21.3765 112.5 25.3062 112.5 30.455C112.5 35.5448 108.339 39.5334 103.028 39.5334V39.5336ZM65.8917 25.5098C63.1981 25.5098 61.2431 27.5512 61.2431 30.455C61.2431 33.2277 63.3141 35.4002 65.9573 35.4002C68.651 35.4002 70.6059 33.3028 70.6059 30.455C70.6059 27.6824 68.5349 25.5098 65.8917 25.5098ZM65.8917 39.5336C60.6166 39.5336 56.4844 35.6037 56.4844 30.455C56.4844 25.3641 60.6451 21.3765 65.9573 21.3765C71.2315 21.3765 75.3646 25.3062 75.3646 30.455C75.3646 35.5448 71.203 39.5334 65.8917 39.5334" fill="#B7BAC7"/>
</g>
</svg>
