<svg width="113" height="30" viewBox="0 0 113 30" fill="none" xmlns="http://www.w3.org/2000/svg">
<g id="Group 6">
<path id="Vector" fill-rule="evenodd" clip-rule="evenodd" d="M36.331 23.1582L37.7288 19.9102C39.2385 21.0392 41.25 21.626 43.2347 21.626C44.6996 21.626 45.627 21.0616 45.627 20.2059C45.6046 17.8136 36.8507 19.6862 36.7835 13.6875C36.7611 10.6411 39.467 8.29359 43.3019 8.29359C45.5822 8.29359 47.858 8.85807 49.4843 10.1438L48.1761 13.459C46.6888 12.5093 44.8385 11.8328 43.0779 11.8328C41.8817 11.8328 41.0932 12.3973 41.0932 13.1185C41.1156 15.4661 49.9368 14.1803 50.0264 19.9102C50.0264 23.0238 47.3876 25.2145 43.5976 25.2145C40.82 25.21 38.2708 24.556 36.331 23.1582V23.1582ZM90.0059 18.7365C89.307 19.955 87.9988 20.7883 86.4846 20.7883C84.2491 20.7883 82.4481 18.9829 82.4481 16.7518C82.4481 14.5208 84.2536 12.7153 86.4846 12.7153C87.9944 12.7153 89.307 13.5486 90.0059 14.7672L93.8631 12.6257C92.4206 10.0542 89.643 8.29359 86.4846 8.29359C81.812 8.29359 78.0219 12.0837 78.0219 16.7563C78.0219 21.4289 81.812 25.219 86.4846 25.219C89.6654 25.219 92.4206 23.4808 93.8631 20.8868L90.0059 18.7365ZM51.9662 1.27344H56.7956V24.8964H51.9662V1.27344ZM95.7582 1.27344V24.8964H100.588V17.8091L106.318 24.8964H112.5L105.211 16.4785L111.958 8.62511H106.044L100.583 15.1435V1.27344H95.7582Z" fill="black"/>
<path id="Vector_2" d="M71.1451 18.7812C70.4462 19.9326 69.0036 20.7882 67.3774 20.7882C65.1419 20.7882 63.3409 18.9828 63.3409 16.7518C63.3409 14.5207 65.1464 12.7153 67.3774 12.7153C69.0036 12.7153 70.4462 13.6158 71.1451 14.7895V18.7812ZM71.1451 8.62954V10.547C70.3566 9.21642 68.3944 8.28906 66.338 8.28906C62.0955 8.28906 58.7579 12.0343 58.7579 16.7294C58.7579 21.4244 62.0955 25.2145 66.338 25.2145C68.3899 25.2145 70.3521 24.2916 71.1451 22.9566V24.874H75.9745V8.62954H71.1451Z" fill="black"/>
<g id="Group">
<path id="Vector_3" fill-rule="evenodd" clip-rule="evenodd" d="M6.4808 18.7587C6.4808 20.4074 5.15024 21.738 3.5016 21.738C1.85296 21.738 0.5224 20.4029 0.5224 18.7587C0.5224 17.1146 1.85296 15.7795 3.5016 15.7795H6.4808V18.7587ZM7.96816 18.7587C7.96816 17.1101 9.29872 15.7795 10.9474 15.7795C12.596 15.7795 13.9266 17.1101 13.9266 18.7587V26.2045C13.9266 27.8532 12.596 29.1837 10.9474 29.1837C9.29872 29.1837 7.96816 27.8532 7.96816 26.2045V18.7587Z" fill="#E01E5A"/>
<path id="Vector_4" fill-rule="evenodd" clip-rule="evenodd" d="M10.9474 6.80168C9.29872 6.80168 7.96816 5.47111 7.96816 3.82247C7.96816 2.17383 9.29872 0.843262 10.9474 0.843262C12.596 0.843262 13.9266 2.17383 13.9266 3.82247V6.80168H10.9474ZM10.9474 8.31144C12.596 8.31144 13.9266 9.642 13.9266 11.2906C13.9266 12.9393 12.596 14.2699 10.9474 14.2699H3.4792C1.83056 14.2699 0.5 12.9348 0.5 11.2906C0.5 9.64648 1.83056 8.31144 3.4792 8.31144H10.9474Z" fill="#36C5F0"/>
<path id="Vector_5" fill-rule="evenodd" clip-rule="evenodd" d="M22.8821 11.2906C22.8821 9.64201 24.2127 8.31144 25.8613 8.31144C27.5099 8.31144 28.8405 9.64201 28.8405 11.2906C28.8405 12.9393 27.5099 14.2699 25.8613 14.2699H22.8821V11.2906ZM21.3948 11.2906C21.3948 12.9393 20.0642 14.2699 18.4156 14.2699C16.7669 14.2699 15.4364 12.9393 15.4364 11.2906V3.82247C15.4364 2.17383 16.7669 0.843262 18.4156 0.843262C20.0642 0.843262 21.3948 2.17383 21.3948 3.82247V11.2906Z" fill="#2EB67D"/>
<path id="Vector_6" fill-rule="evenodd" clip-rule="evenodd" d="M18.4156 23.2253C20.0642 23.2253 21.3948 24.5559 21.3948 26.2045C21.3948 27.8532 20.0642 29.1837 18.4156 29.1837C16.7669 29.1837 15.4364 27.8532 15.4364 26.2045V23.2253H18.4156ZM18.4156 21.738C16.7669 21.738 15.4364 20.4074 15.4364 18.7587C15.4364 17.1101 16.7669 15.7795 18.4156 15.7795H25.8837C27.5323 15.7795 28.8629 17.1101 28.8629 18.7587C28.8629 20.4074 27.5323 21.738 25.8837 21.738H18.4156Z" fill="#ECB22E"/>
</g>
</g>
</svg>
