<svg width="113" height="38" viewBox="0 0 113 38" fill="none" xmlns="http://www.w3.org/2000/svg">
<g id="Group 5">
<path id="Vector" d="M14.2933 0.724731H15.2893C18.747 0.799899 22.1484 2.19051 24.5913 4.65226C23.6893 5.57307 22.7685 6.45629 21.8853 7.3771C20.5135 6.13683 18.8598 5.17843 17.0558 4.84018C14.3873 4.27642 11.5121 4.7838 9.2759 6.30595C6.83295 7.90327 5.17925 10.6093 4.82221 13.5033C4.42758 16.3597 5.23563 19.3664 7.09603 21.5838C8.88127 23.7449 11.6061 25.0979 14.4249 25.1919C17.0558 25.3422 19.7994 24.5342 21.7162 22.6926C23.2195 21.3959 23.9148 19.4228 24.1403 17.506C21.0209 17.506 17.9014 17.5248 14.7819 17.506V13.6348H27.9175C28.594 17.7879 27.6168 22.4671 24.4598 25.4362C22.3551 27.5409 19.4423 28.7812 16.4732 29.0255C13.598 29.3074 10.6289 28.7624 8.07321 27.3718C5.01013 25.7369 2.56717 22.9745 1.36449 19.7234C0.236971 16.7355 0.218179 13.353 1.27053 10.3462C2.22892 7.6026 4.07053 5.17843 6.43831 3.48715C8.71214 1.81467 11.4746 0.893859 14.2933 0.724731Z" fill="#B7BAC7"/>
<path id="Vector_2" d="M89.649 1.70178H93.6705V28.5367C92.3363 28.5367 90.9833 28.5555 89.649 28.5179C89.6678 19.5917 89.649 10.6467 89.649 1.70178V1.70178Z" fill="#B7BAC7"/>
<path id="Vector_3" d="M36.8625 11.004C39.343 10.5342 42.0303 11.0604 44.0786 12.5449C45.939 13.8604 47.2357 15.9275 47.6303 18.1825C48.1377 20.7946 47.4988 23.651 45.8075 25.7181C43.9847 28.0295 40.9967 29.2698 38.084 29.0818C35.4155 28.9315 32.8222 27.5973 31.2437 25.4174C29.4585 23.012 29.0262 19.7047 30.0034 16.8859C30.9806 13.8604 33.743 11.5489 36.8625 11.004V11.004ZM37.4263 14.5745C36.4115 14.8375 35.4719 15.4201 34.7954 16.2469C32.9726 18.4268 33.0853 21.9785 35.0961 24.008C36.2424 25.1731 37.9712 25.7181 39.5685 25.3986C41.0531 25.1355 42.3498 24.1396 43.0638 22.8241C44.3041 20.5879 43.9471 17.506 42.0491 15.7583C40.8276 14.6308 39.0424 14.161 37.4263 14.5745Z" fill="#B7BAC7"/>
<path id="Vector_4" d="M56.7819 11.004C59.6195 10.4591 62.7202 11.2483 64.8437 13.2403C68.3014 16.3409 68.6772 22.1476 65.7269 25.7181C63.9417 27.9731 61.0477 29.2134 58.1913 29.0818C55.4665 29.0067 52.7793 27.6537 51.1631 25.4174C49.3403 22.9557 48.9457 19.5731 49.9792 16.698C51.0128 13.7664 53.7188 11.5302 56.7819 11.004V11.004ZM57.3457 14.5745C56.3309 14.8376 55.3913 15.4201 54.7148 16.2282C52.9108 18.3705 52.986 21.8657 54.9215 23.9141C56.0678 25.1355 57.8531 25.7369 59.5068 25.3986C60.9725 25.1168 62.288 24.1396 63.0021 22.8241C64.2235 20.5691 63.8665 17.4872 61.9497 15.7396C60.7282 14.6121 58.943 14.1611 57.3457 14.5745Z" fill="#B7BAC7"/>
<path id="Vector_5" d="M73.6758 12.0937C75.8369 10.7407 78.7121 10.3648 81.0423 11.5299C81.7752 11.8494 82.3765 12.3944 82.9591 12.9393C82.9779 12.4319 82.9591 11.9058 82.9779 11.3796C84.2369 11.3984 85.496 11.3796 86.7738 11.3984V27.9729C86.7551 30.4722 86.1161 33.1218 84.3121 34.9447C82.3389 36.9554 79.3134 37.5755 76.5886 37.1621C73.6758 36.7299 71.1389 34.6064 70.0114 31.9192C71.1389 31.3742 72.3228 30.942 73.4879 30.4346C74.1456 31.9755 75.4799 33.291 77.1524 33.5916C78.8248 33.8923 80.7604 33.4789 81.8503 32.0883C83.0154 30.6601 83.0154 28.7057 82.9591 26.9581C82.0946 27.8037 81.0987 28.5554 79.896 28.8373C77.2839 29.5702 74.4087 28.6682 72.398 26.9017C70.3685 25.1353 69.1658 22.4104 69.2785 19.7044C69.3349 16.6413 71.0638 13.691 73.6758 12.0937V12.0937ZM77.5658 14.499C76.4195 14.687 75.3483 15.3259 74.6154 16.2091C72.849 18.3138 72.849 21.6776 74.6342 23.7447C75.649 24.9661 77.2839 25.6427 78.8624 25.4735C80.347 25.3232 81.7188 24.3836 82.4517 23.087C83.692 20.8883 83.4853 17.9004 81.8128 15.9836C80.7792 14.7997 79.1255 14.2172 77.5658 14.499V14.499Z" fill="#B7BAC7"/>
<path id="Vector_6" d="M98.5001 13.0522C100.755 10.9475 104.232 10.2334 107.126 11.3421C109.869 12.3757 111.617 14.9878 112.5 17.675C108.422 19.3663 104.363 21.0388 100.285 22.7301C100.849 23.8012 101.713 24.7784 102.879 25.173C104.514 25.7556 106.468 25.5489 107.84 24.4589C108.385 24.0455 108.817 23.5005 109.23 22.9744C110.264 23.6697 111.297 24.3462 112.331 25.0415C110.865 27.2401 108.403 28.7811 105.754 29.0254C102.822 29.3824 99.7028 28.2549 97.8048 25.9623C94.6853 22.3542 94.986 16.3032 98.5001 13.0522V13.0522ZM100.511 16.5287C99.8719 17.4495 99.6088 18.577 99.6276 19.6858C102.352 18.5582 105.077 17.4307 107.802 16.2844C107.351 15.2321 106.261 14.5931 105.152 14.424C103.367 14.1046 101.507 15.0629 100.511 16.5287V16.5287Z" fill="#B7BAC7"/>
</g>
</svg>
